<?xml version="1.0" encoding="iso-8859-1"?>
<!-- Generator: Adobe Illustrator 19.0.0, SVG Export Plug-In . SVG Version: 6.00 Build 0)  -->
<svg version="1.1" id="Capa_1" xmlns="http://www.w3.org/2000/svg" xmlns:xlink="http://www.w3.org/1999/xlink" x="0px" y="0px"
	 viewBox="0 0 464 464" style="enable-background:new 0 0 464 464;" xml:space="preserve">
<g>
	<path style="fill:#69749A;" d="M275.073,464h-160c-13.255,0-24-10.745-24-24l0,0V296h208v144
		C299.073,453.255,288.328,464,275.073,464L275.073,464z"/>
	<path style="fill:#69749A;" d="M67.073,232h256c17.673,0,32,14.327,32,32l0,0c0,17.673-14.327,32-32,32h-256
		c-17.673,0-32-14.327-32-32l0,0C35.073,246.327,49.4,232,67.073,232z"/>
</g>
<path style="fill:#DC4D41;" d="M91.073,296h208v40h-208V296z"/>
<path style="fill:#B9B9B9;" d="M99.073,256h200v16h-200V256z"/>
<path style="fill:#62666A;" d="M313.428,42.213l26.973-17.218l120.525,188.81l-26.973,17.218L313.428,42.213z"/>
<g>
	<path style="fill:#FBB540;" d="M313.432,42.203l26.973-17.218l25.827,40.459l-26.973,17.218L313.432,42.203z"/>
	<path style="fill:#FBB540;" d="M27.073,40h16v16h-16V40z"/>
	<path style="fill:#FBB540;" d="M27.073,88h16v16h-16V88z"/>
	<path style="fill:#FBB540;" d="M51.073,64h16v16h-16V64z"/>
	<path style="fill:#FBB540;" d="M3.073,64h16v16h-16V64z"/>
	<path style="fill:#FBB540;" d="M371.073,312h16v16h-16V312z"/>
	<path style="fill:#FBB540;" d="M371.073,344h16v16h-16V344z"/>
	<path style="fill:#FBB540;" d="M387.073,328h16v16h-16V328z"/>
	<path style="fill:#FBB540;" d="M355.073,328h16v16h-16V328z"/>
</g>
<path style="fill:#C7463B;" d="M91.073,296h208v16h-208V296z"/>
<g>
	<path style="fill:#EAEAE8;" d="M179.073,168h-48V64c0-20.772,6.737-40.983,19.2-57.6l4.8-6.4l4.8,6.4
		c12.463,16.617,19.2,36.828,19.2,57.6V168z"/>
	<path style="fill:#EAEAE8;" d="M259.073,160h-48V64c0-20.772,6.737-40.983,19.2-57.6l4.8-6.4l4.8,6.4
		c12.463,16.617,19.2,36.828,19.2,57.6V160z"/>
	<path style="fill:#EAEAE8;" d="M179.073,136h40c30.928,0,56,25.072,56,56v72l0,0h-152l0,0v-72
		C123.073,161.072,148.146,136,179.073,136z"/>
</g>
<g>
	<path style="fill:#62666A;" d="M163.073,208c-4.418,0-8-3.582-8-8v-16c0-4.418,3.582-8,8-8s8,3.582,8,8v16
		C171.073,204.418,167.492,208,163.073,208z"/>
	<path style="fill:#62666A;" d="M227.073,208c-4.418,0-8-3.582-8-8v-16c0-4.418,3.582-8,8-8s8,3.582,8,8v16
		C235.073,204.418,231.492,208,227.073,208z"/>
</g>
<g>
	<path style="fill:#F790B0;" d="M223.513,233.344l-20.44-13.624V208c0-4.418-3.582-8-8-8s-8,3.582-8,8v11.72l-20.44,13.6
		c-3.676,2.452-4.668,7.42-2.216,11.096s7.42,4.668,11.096,2.216l19.56-13.032l19.56,13.04c3.676,2.452,8.644,1.46,11.096-2.216
		s1.46-8.644-2.216-11.096l0,0V233.344z"/>
	<path style="fill:#F790B0;" d="M155.073,120c-4.418,0-8-3.582-8-8V56c0-4.418,3.582-8,8-8s8,3.582,8,8v56
		C163.073,116.418,159.492,120,155.073,120z"/>
	<path style="fill:#F790B0;" d="M235.073,120c-4.418,0-8-3.582-8-8V56c0-4.418,3.582-8,8-8s8,3.582,8,8v56
		C243.073,116.418,239.492,120,235.073,120z"/>
</g>
<g>
</g>
<g>
</g>
<g>
</g>
<g>
</g>
<g>
</g>
<g>
</g>
<g>
</g>
<g>
</g>
<g>
</g>
<g>
</g>
<g>
</g>
<g>
</g>
<g>
</g>
<g>
</g>
<g>
</g>
</svg>
